# xmcd
#
# Track frame offsets:
# 150
# 14949
# 32528
# 49799
# 64502
# 82120
# 96901
# 111077
# 126636
# 142822
# 159047
# 175666
# 192610
#
# Disc length: 2797 seconds
#
#
# Revision: 0
# Processed by: cddbd v1.4PL0 Copyright (c) Steve Scherf et al.
# Submitted via: FreeRIP 2.35 
#
DISCID=b00aeb0d
DTITLE=HI-5 - неяы ти фгтаы
DYEAR=1900
DGENRE=Folk
TTITLE0=то тувеяо астеяи
TTITLE1=йаи се хекы
TTITLE2=ьане
TTITLE3=ALL THE WOMAN YOU NEED
TTITLE4=неяы ти фгтаы
TTITLE5=жтамеи пиа
TTITLE6=пяытг жояа
TTITLE7=пес лоу пыс
TTITLE8=акко ацапг акко SEX
TTITLE9=ока лпояоум ма акканоуме
TTITLE10=л'ема жики
TTITLE11=кахос г сысто
TTITLE12=I WAS MADE FOR LOVIN' YOU
EXTD=
EXTT0=
EXTT1=
EXTT2=
EXTT3=
EXTT4=
EXTT5=
EXTT6=
EXTT7=
EXTT8=
EXTT9=
EXTT10=
EXTT11=
EXTT12=
PLAYORDER=
